<svg width="120" height="120" viewBox="0 0 48 48" fill="none" xmlns="http://www.w3.org/2000/svg">
  <defs>
    <linearGradient id="lg" x1="6" y1="6" x2="42" y2="42" gradientUnits="userSpaceOnUse">
      <stop stop-color="#1d4ed8" />
      <stop offset="1" stop-color="#0ea5e9" />
    </linearGradient>
  </defs>
  <rect x="4" y="4" width="40" height="40" rx="10" stroke="url(#lg)" stroke-width="3" fill="none" />
  <path d="M15 18C15 15.2386 19.0294 13 24 13C28.9706 13 33 15.2386 33 18C33 20.7614 28.9706 23 24 23C19.0294 23 15 20.7614 15 18Z" stroke="url(#lg)" stroke-width="2.6" />
  <path d="M15 24.5C15 27.2614 19.0294 29.5 24 29.5C28.9706 29.5 33 27.2614 33 24.5" stroke="url(#lg)" stroke-width="2.6" stroke-linecap="round" />
  <path d="M15 30.5C15 33.2614 19.0294 35.5 24 35.5C28.9706 35.5 33 33.2614 33 30.5" stroke="url(#lg)" stroke-width="2.6" stroke-linecap="round" />
</svg>